<svg width="36" height="36" viewBox="0 0 36 36" fill="none" xmlns="http://www.w3.org/2000/svg">
<g clip-path="url(#clip0)">
<path d="M34.2077 2.46664H1.74087C0.779299 2.46664 0 3.24602 0 4.2075V24.5756C0 25.5371 0.779299 26.3165 1.74087 26.3165H13.8832V30.2613H9.15827C8.27034 30.2613 7.54796 30.9837 7.54796 31.8716C7.54796 32.7595 8.27034 33.4819 9.15827 33.4819H26.7903C27.6782 33.4819 28.4006 32.7595 28.4006 31.8716C28.4006 30.9837 27.6782 30.2613 26.7903 30.2613H22.0653V26.3165H34.2077C35.1693 26.3165 35.9486 25.5371 35.9486 24.5756V4.2075C35.9486 3.24602 35.1693 2.46664 34.2077 2.46664ZM33.3373 23.7052H2.6113V5.07794H33.3373V23.7052Z" fill="#515151"/>
<path d="M8.23352 15.3751L13.7246 17.9286C13.8665 17.9943 14.0176 18.0276 14.1739 18.0276C14.3774 18.0276 14.5757 17.9698 14.7481 17.8602C15.0569 17.6628 15.2413 17.3266 15.2413 16.9606V16.9325C15.2413 16.519 14.9989 16.1391 14.6236 15.9647L11.1893 14.3692L14.6237 12.7733C14.9989 12.5989 15.2413 12.219 15.2413 11.8056V11.7778C15.2413 11.4113 15.0568 11.075 14.7482 10.8783C14.5774 10.7692 14.3785 10.7116 14.1732 10.7116C14.0184 10.7116 13.8631 10.7456 13.724 10.8102L8.23343 13.3633C7.85845 13.5379 7.61621 13.9177 7.61621 14.331V14.4074C7.61612 14.8202 7.85828 15.1999 8.23352 15.3751Z" fill="#515151"/>
<path d="M15.2902 20.5761C15.4905 20.8502 15.8126 21.0138 16.152 21.0138H16.1794C16.6453 21.0138 17.0535 20.7156 17.1954 20.2726L20.8126 9.06487C20.9164 8.74133 20.8588 8.38437 20.6585 8.10966C20.4582 7.83556 20.1361 7.67183 19.7967 7.67183H19.7693C19.3033 7.67183 18.8947 7.97004 18.7528 8.41309L15.1351 19.6217C15.0322 19.9455 15.0902 20.3022 15.2902 20.5761Z" fill="#515151"/>
<path d="M20.7072 11.8055C20.7072 12.2186 20.9494 12.5985 21.3248 12.7736L24.7591 14.3691L21.3248 15.9646C20.9496 16.1391 20.7072 16.5189 20.7072 16.9325V16.9605C20.7072 17.3265 20.8914 17.6628 21.2006 17.8602C21.3724 17.9697 21.5709 18.0276 21.7747 18.0276C21.9306 18.0276 22.0817 17.9942 22.2246 17.9281L27.7154 15.3747C28.0903 15.1999 28.3324 14.8201 28.3324 14.4072V14.3308C28.3324 13.9175 28.0902 13.5377 27.715 13.3632L22.2243 10.8098C22.0858 10.7455 21.9307 10.7114 21.7759 10.7114C21.5706 10.7114 21.3716 10.769 21.201 10.8778C20.8917 11.0749 20.7072 11.4111 20.7072 11.7777V11.8055Z" fill="#515151"/>
</g>
<defs>
<clipPath id="clip0">
<rect width="35.9486" height="35.9486" fill="white"/>
</clipPath>
</defs>
</svg>
